<svg xmlns="http://www.w3.org/2000/svg" width="1920" height="1080.411" viewBox="0 0 1920 1080.411"><defs><style>.a{fill:#100007;}.b{opacity:0.025;}.c,.e{fill:none;}.c{stroke:#fff;stroke-width:3px;}.d{stroke:none;}</style></defs><g transform="translate(0 0.411)"><rect class="a" width="1920" height="1080"/><g class="b" transform="translate(70 2.281)"><g transform="translate(0)"><path class="c" d="M0,0V22.319L22,10.37Z" transform="translate(766.602 43.466) rotate(115)"/><path class="c" d="M0,0V22.319L22,10.37Z" transform="translate(821.24 342.44) rotate(-177)"/><path class="c" d="M0,0V22.319L22,10.37Z" transform="translate(372.24 23.44) rotate(-177)"/><path class="c" d="M0,0V22.319L22,10.37Z" transform="translate(138.609 430.401) rotate(-59)"/><g class="c" transform="translate(454 138.72) rotate(-90)"><circle class="d" cx="11" cy="11" r="11"/><circle class="e" cx="11" cy="11" r="9.5"/></g><g class="c" transform="translate(351 504.72) rotate(-90)"><circle class="d" cx="11" cy="11" r="11"/><circle class="e" cx="11" cy="11" r="9.5"/></g><g class="c" transform="translate(95 315.72) rotate(-90)"><circle class="d" cx="11" cy="11" r="11"/><circle class="e" cx="11" cy="11" r="9.5"/></g><g class="c" transform="translate(0 33.72) rotate(-90)"><circle class="d" cx="11" cy="11" r="11"/><circle class="e" cx="11" cy="11" r="9.5"/></g><g class="c" transform="translate(655 192.72) rotate(-90)"><circle class="d" cx="11" cy="11" r="11"/><circle class="e" cx="11" cy="11" r="9.5"/></g><g class="c" transform="translate(497 391.72) rotate(-90)"><circle class="d" cx="11" cy="11" r="11"/><circle class="e" cx="11" cy="11" r="9.5"/></g><g class="c" transform="translate(659.673 454.508) rotate(21)"><rect class="d" width="22" height="22"/><rect class="e" x="1.5" y="1.5" width="19" height="19"/></g><g class="c" transform="translate(940.382 152.04) rotate(-65)"><rect class="d" width="22" height="22"/><rect class="e" x="1.5" y="1.5" width="19" height="19"/></g><g class="c" transform="matrix(0.454, 0.891, -0.891, 0.454, 188.807, 127.925)"><rect class="d" width="22" height="22"/><rect class="e" x="1.5" y="1.5" width="19" height="19"/></g><g class="c" transform="translate(492.974 249.693) rotate(-30)"><rect class="d" width="22" height="22"/><rect class="e" x="1.5" y="1.5" width="19" height="19"/></g><g class="c" transform="translate(891.974 437.693) rotate(-30)"><rect class="d" width="22" height="22"/><rect class="e" x="1.5" y="1.5" width="19" height="19"/></g><g class="c" transform="translate(307.974 264.693) rotate(-30)"><rect class="d" width="22" height="22"/><rect class="e" x="1.5" y="1.5" width="19" height="19"/></g></g><g transform="translate(0 573)"><path class="c" d="M0,0V22.319L22,10.37Z" transform="translate(766.602 43.466) rotate(115)"/><path class="c" d="M0,0V22.319L22,10.37Z" transform="translate(821.24 342.44) rotate(-177)"/><path class="c" d="M0,0V22.319L22,10.37Z" transform="translate(372.24 23.44) rotate(-177)"/><path class="c" d="M0,0V22.319L22,10.37Z" transform="translate(138.609 430.401) rotate(-59)"/><g class="c" transform="translate(454 138.72) rotate(-90)"><circle class="d" cx="11" cy="11" r="11"/><circle class="e" cx="11" cy="11" r="9.5"/></g><g class="c" transform="translate(351 504.72) rotate(-90)"><circle class="d" cx="11" cy="11" r="11"/><circle class="e" cx="11" cy="11" r="9.5"/></g><g class="c" transform="translate(95 315.72) rotate(-90)"><circle class="d" cx="11" cy="11" r="11"/><circle class="e" cx="11" cy="11" r="9.5"/></g><g class="c" transform="translate(0 33.72) rotate(-90)"><circle class="d" cx="11" cy="11" r="11"/><circle class="e" cx="11" cy="11" r="9.5"/></g><g class="c" transform="translate(655 192.72) rotate(-90)"><circle class="d" cx="11" cy="11" r="11"/><circle class="e" cx="11" cy="11" r="9.5"/></g><g class="c" transform="translate(497 391.72) rotate(-90)"><circle class="d" cx="11" cy="11" r="11"/><circle class="e" cx="11" cy="11" r="9.5"/></g><g class="c" transform="translate(659.673 454.508) rotate(21)"><rect class="d" width="22" height="22"/><rect class="e" x="1.5" y="1.5" width="19" height="19"/></g><g class="c" transform="translate(940.382 152.04) rotate(-65)"><rect class="d" width="22" height="22"/><rect class="e" x="1.5" y="1.5" width="19" height="19"/></g><g class="c" transform="matrix(0.454, 0.891, -0.891, 0.454, 188.807, 127.925)"><rect class="d" width="22" height="22"/><rect class="e" x="1.5" y="1.5" width="19" height="19"/></g><g class="c" transform="translate(492.974 249.693) rotate(-30)"><rect class="d" width="22" height="22"/><rect class="e" x="1.5" y="1.5" width="19" height="19"/></g><g class="c" transform="translate(891.974 437.693) rotate(-30)"><rect class="d" width="22" height="22"/><rect class="e" x="1.5" y="1.5" width="19" height="19"/></g><g class="c" transform="translate(307.974 264.693) rotate(-30)"><rect class="d" width="22" height="22"/><rect class="e" x="1.5" y="1.5" width="19" height="19"/></g></g></g><g class="b" transform="translate(1060 2.281)"><g transform="translate(0)"><path class="c" d="M0,0V22.319L22,10.37Z" transform="translate(680.656 43.466) rotate(115)"/><path class="c" d="M0,0V22.319L22,10.37Z" transform="translate(711.622 342.44) rotate(-177)"/><path class="c" d="M0,0V22.319L22,10.37Z" transform="translate(331.673 23.44) rotate(-177)"/><path class="c" d="M0,0V22.319L22,10.37Z" transform="translate(138.609 430.401) rotate(-59)"/><g class="c" transform="translate(401.482 138.72) rotate(-90)"><circle class="d" cx="11" cy="11" r="11"/><circle class="e" cx="11" cy="11" r="9.5"/></g><g class="c" transform="translate(310.397 504.72) rotate(-90)"><circle class="d" cx="11" cy="11" r="11"/><circle class="e" cx="11" cy="11" r="9.5"/></g><g class="c" transform="translate(95 315.72) rotate(-90)"><circle class="d" cx="11" cy="11" r="11"/><circle class="e" cx="11" cy="11" r="9.5"/></g><g class="c" transform="translate(0 33.72) rotate(-90)"><circle class="d" cx="11" cy="11" r="11"/><circle class="e" cx="11" cy="11" r="9.5"/></g><g class="c" transform="translate(579.231 192.72) rotate(-90)"><circle class="d" cx="11" cy="11" r="11"/><circle class="e" cx="11" cy="11" r="9.5"/></g><g class="c" transform="translate(439.508 391.72) rotate(-90)"><circle class="d" cx="11" cy="11" r="11"/><circle class="e" cx="11" cy="11" r="9.5"/></g><g class="c" transform="translate(583.761 454.508) rotate(21)"><rect class="d" width="22" height="22"/><rect class="e" x="1.5" y="1.5" width="19" height="19"/></g><g class="c" transform="translate(830.764 152.04) rotate(-65)"><rect class="d" width="22" height="22"/><rect class="e" x="1.5" y="1.5" width="19" height="19"/></g><g class="c" transform="matrix(0.454, 0.891, -0.891, 0.454, 169.076, 127.925)"><rect class="d" width="22" height="22"/><rect class="e" x="1.5" y="1.5" width="19" height="19"/></g><g class="c" transform="translate(435.459 249.693) rotate(-30)"><rect class="d" width="22" height="22"/><rect class="e" x="1.5" y="1.5" width="19" height="19"/></g><g class="c" transform="translate(782.356 437.693) rotate(-30)"><rect class="d" width="22" height="22"/><rect class="e" x="1.5" y="1.5" width="19" height="19"/></g><g class="c" transform="translate(272.043 264.693) rotate(-30)"><rect class="d" width="22" height="22"/><rect class="e" x="1.5" y="1.5" width="19" height="19"/></g></g><g transform="translate(0 573)"><path class="c" d="M0,0V22.319L22,10.37Z" transform="translate(680.656 43.466) rotate(115)"/><path class="c" d="M0,0V22.319L22,10.37Z" transform="translate(711.622 342.44) rotate(-177)"/><path class="c" d="M0,0V22.319L22,10.37Z" transform="translate(331.673 23.44) rotate(-177)"/><path class="c" d="M0,0V22.319L22,10.37Z" transform="translate(138.609 430.401) rotate(-59)"/><g class="c" transform="translate(401.482 138.72) rotate(-90)"><circle class="d" cx="11" cy="11" r="11"/><circle class="e" cx="11" cy="11" r="9.5"/></g><g class="c" transform="translate(310.397 504.72) rotate(-90)"><circle class="d" cx="11" cy="11" r="11"/><circle class="e" cx="11" cy="11" r="9.5"/></g><g class="c" transform="translate(95 315.72) rotate(-90)"><circle class="d" cx="11" cy="11" r="11"/><circle class="e" cx="11" cy="11" r="9.5"/></g><g class="c" transform="translate(0 33.72) rotate(-90)"><circle class="d" cx="11" cy="11" r="11"/><circle class="e" cx="11" cy="11" r="9.5"/></g><g class="c" transform="translate(579.231 192.72) rotate(-90)"><circle class="d" cx="11" cy="11" r="11"/><circle class="e" cx="11" cy="11" r="9.5"/></g><g class="c" transform="translate(439.508 391.72) rotate(-90)"><circle class="d" cx="11" cy="11" r="11"/><circle class="e" cx="11" cy="11" r="9.5"/></g><g class="c" transform="translate(583.761 454.508) rotate(21)"><rect class="d" width="22" height="22"/><rect class="e" x="1.5" y="1.5" width="19" height="19"/></g><g class="c" transform="translate(830.764 152.04) rotate(-65)"><rect class="d" width="22" height="22"/><rect class="e" x="1.5" y="1.5" width="19" height="19"/></g><g class="c" transform="matrix(0.454, 0.891, -0.891, 0.454, 169.076, 127.925)"><rect class="d" width="22" height="22"/><rect class="e" x="1.5" y="1.5" width="19" height="19"/></g><g class="c" transform="translate(435.459 249.693) rotate(-30)"><rect class="d" width="22" height="22"/><rect class="e" x="1.5" y="1.5" width="19" height="19"/></g><g class="c" transform="translate(782.356 437.693) rotate(-30)"><rect class="d" width="22" height="22"/><rect class="e" x="1.5" y="1.5" width="19" height="19"/></g><g class="c" transform="translate(272.043 264.693) rotate(-30)"><rect class="d" width="22" height="22"/><rect class="e" x="1.5" y="1.5" width="19" height="19"/></g></g></g></g></svg>